<?xml version="1.0" encoding="UTF-8"?>
<svg version="1.1" xmlns="http://www.w3.org/2000/svg" width="128" height="128">
<path d="M0 0 C42.24 0 84.48 0 128 0 C128 42.24 128 84.48 128 128 C85.76 128 43.52 128 0 128 C0 85.76 0 43.52 0 0 Z " fill="#23252D" transform="translate(0,0)"/>
<path d="M0 0 C3.04214768 1.48130721 4.6940923 2.32140193 6.109375 5.4609375 C7.75909267 12.96514103 8.64096434 20.32406512 9 28 C9.79148437 28.27328125 10.58296875 28.5465625 11.3984375 28.828125 C15.00549501 30.45292568 15.48313296 32.41467791 17 36 C17.556875 36.928125 18.11375 37.85625 18.6875 38.8125 C20.40193847 42.97613629 20.26636875 46.56052085 20 51 C20.66 51 21.32 51 22 51 C24.07251946 53.24522941 24.99769909 54.99227553 25.875 57.9375 C27.22935546 61.62435653 29.10616884 63.39555195 32 66 C34 68 34 68 34 72 C35.32 72 36.64 72 38 72 C38 72.66 38 73.32 38 74 C39.65 74 41.3 74 43 74 C43 82.91 43 91.82 43 101 C0.76 101 -41.48 101 -85 101 C-85 93.08 -85 85.16 -85 77 C-81.37 77 -77.74 77 -74 77 C-72.515 76.505 -72.515 76.505 -71 76 C-71 75.34 -71 74.68 -71 74 C-70.34 74 -69.68 74 -69 74 C-68.59974609 73.10087891 -68.59974609 73.10087891 -68.19140625 72.18359375 C-66.98133591 69.96579271 -65.7742032 68.76381967 -63.9375 67.0625 C-60.83042321 63.62092929 -60.65701454 61.07345375 -60.5625 56.5 C-60.42356328 51.68167459 -60.04179478 49.17533002 -56.625 45.6875 C-54.08172671 43.45266623 -53.48216907 43 -50 43 C-50 41.35 -50 39.7 -50 38 C-46.67465243 36.89155081 -44.37817425 37.15545644 -41 38 C-41 37.34 -41 36.68 -41 36 C-40.34 36 -39.68 36 -39 36 C-39 34.68 -39 33.36 -39 32 C-39.94875 31.731875 -40.8975 31.46375 -41.875 31.1875 C-45 30 -45 30 -47 27 C-47 25.68 -47 24.36 -47 23 C-46.2575 22.731875 -45.515 22.46375 -44.75 22.1875 C-42.00566136 21.16132752 -42.00566136 21.16132752 -40.1328125 19.4140625 C-37.4616694 17.64308484 -36.25908598 17.69444286 -33.125 18.1875 C-29.67898576 18.96057944 -28.36477232 19.5122978 -26.2265625 22.37109375 C-25.2551272 24.18289769 -24.30641466 26.00710112 -23.3828125 27.84375 C-22.69832031 28.91109375 -22.69832031 28.91109375 -22 30 C-18.7392959 30.83939269 -18.7392959 30.83939269 -16 30 C-16 29.34 -16 28.68 -16 28 C-15.236875 27.29875 -14.47375 26.5975 -13.6875 25.875 C-10.85029497 22.83985043 -9.96849366 20.7013098 -8.6796875 16.87109375 C-7.82083616 14.50678461 -6.78026254 12.78026254 -5 11 C-4.01 11 -3.02 11 -2 11 C-1.93941406 10.37351562 -1.87882812 9.74703125 -1.81640625 9.1015625 C-1.69072266 7.87566406 -1.69072266 7.87566406 -1.5625 6.625 C-1.44068359 5.40683594 -1.44068359 5.40683594 -1.31640625 4.1640625 C-1 2 -1 2 0 0 Z " fill="#230B0B" transform="translate(85,27)"/>
<path d="M0 0 C0.99 0.99 0.99 0.99 2 2 C2.66 1.67 3.32 1.34 4 1 C6.72265625 2.44140625 6.72265625 2.44140625 10.0625 4.5625 C10.64088623 4.92875488 11.21927246 5.29500977 11.81518555 5.67236328 C12.98935071 6.41871671 14.16099989 7.16904327 15.33007812 7.92333984 C16.83338568 8.89257761 18.34584373 9.84758738 19.859375 10.80078125 C24.47533864 13.76293626 24.47533864 13.76293626 26 15 C26 15.66 26 16.32 26 17 C29.95495425 19.61537297 34.16827373 19.44264274 38.75 19.625 C39.54277344 19.66367188 40.33554688 19.70234375 41.15234375 19.7421875 C43.10119416 19.836108 45.05056451 19.91912822 47 20 C47 20.66 47 21.32 47 22 C50.60260688 23.94686331 54.39578091 25.27736469 58.25 26.625 C60.4775 27.40875 62.705 28.1925 65 29 C65 34.28 65 39.56 65 45 C22.76 45 -19.48 45 -63 45 C-63 37.08 -63 29.16 -63 21 C-58.606875 21.0928125 -58.606875 21.0928125 -54.125 21.1875 C-47.00123132 21.23350546 -40.0461181 20.88734398 -33 19.8125 C-32.25379395 19.71155029 -31.50758789 19.61060059 -30.73876953 19.5065918 C-26.97112151 18.86124391 -25.24292456 18.270006 -22.65234375 15.390625 C-22.10707031 14.60171875 -21.56179687 13.8128125 -21 13 C-19.33388095 12.957279 -17.66617115 12.95936168 -16 13 C-13.4390706 11.20142332 -13.4390706 11.20142332 -11 9 C-10.113125 8.505 -9.22625 8.01 -8.3125 7.5 C-5.73275742 5.82665346 -5.30128776 4.68932804 -4 2 C-1.875 0.75 -1.875 0.75 0 0 Z " fill="#050305" transform="translate(63,83)"/>
<path d="M0 0 C0.66 0 1.32 0 2 0 C5.30748765 7.36801937 6.36046075 13.17940628 5.65234375 21.25 C5.76707031 22.1575 5.88179687 23.065 6 24 C8.42661597 25.69455441 8.42661597 25.69455441 11 27 C11.5625 30.4375 11.5625 30.4375 11 34 C9.1875 36.4375 9.1875 36.4375 7 38 C6.01 38 5.02 38 4 38 C3.34 39.98 2.68 41.96 2 44 C2.99 44.33 3.98 44.66 5 45 C2.03 44.67 -0.94 44.34 -4 44 C-4.495 40.04 -4.495 40.04 -5 36 C-5.33 38.64 -5.66 41.28 -6 44 C-10.07806162 43.02126521 -12.60702352 42.28069749 -16.0625 39.8125 C-18.8858902 37.72657529 -18.8858902 37.72657529 -22.25 37.9375 C-23.1575 38.288125 -24.065 38.63875 -25 39 C-25.69658363 40.65438613 -26.36096883 42.32254318 -27 44 C-30 45.875 -30 45.875 -33 47 C-33.66 46.67 -34.32 46.34 -35 46 C-33.02 43.69 -31.04 41.38 -29 39 C-30.98 39.66 -32.96 40.32 -35 41 C-34.97679687 40.3709375 -34.95359375 39.741875 -34.9296875 39.09375 C-34.80815919 33.32983602 -35.36226294 28.52736258 -37 23 C-38.3921875 23.061875 -38.3921875 23.061875 -39.8125 23.125 C-43 23 -43 23 -46 21 C-45.77284483 17.81982757 -44.8881484 16.89101639 -42.5625 14.625 C-38.26969503 12.66687843 -35.91470715 12.66638751 -31.390625 13.75 C-27.53553812 15.7657317 -26.28251552 19.06605485 -24.3828125 22.84375 C-23.92648438 23.5553125 -23.47015625 24.266875 -23 25 C-19.7392959 25.83939269 -19.7392959 25.83939269 -17 25 C-17 24.34 -17 23.68 -17 23 C-16.236875 22.29875 -15.47375 21.5975 -14.6875 20.875 C-11.85029497 17.83985043 -10.96849366 15.7013098 -9.6796875 11.87109375 C-8.82083616 9.50678461 -7.78026254 7.78026254 -6 6 C-5.01 6 -4.02 6 -3 6 C-2.814375 5.071875 -2.814375 5.071875 -2.625 4.125 C-2 2 -2 2 0 0 Z " fill="#0A0405" transform="translate(86,32)"/>
<path d="M0 0 C0.66 1.32 1.32 2.64 2 4 C1.01 4.33 0.02 4.66 -1 5 C-1.33 5.99 -1.66 6.98 -2 8 C-4.64 8 -7.28 8 -10 8 C-10 8.99 -10 9.98 -10 11 C-8.35 11 -6.7 11 -5 11 C-5 11.99 -5 12.98 -5 14 C-1.39007621 13.34414811 -1.39007621 13.34414811 2 12 C1.67 13.98 1.34 15.96 1 18 C1.66 18 2.32 18 3 18 C3 21 3 21 1.5 22.6875 C1.005 23.120625 0.51 23.55375 0 24 C0.66 24 1.32 24 2 24 C2 25.65 2 27.3 2 29 C4.31 28.67 6.62 28.34 9 28 C8.875 30.25 8.875 30.25 8 33 C5.04439618 35.31308125 2.55934855 36.81355048 -1 38 C-1.99 37.67 -2.98 37.34 -4 37 C-4.433125 37.928125 -4.433125 37.928125 -4.875 38.875 C-6 41 -6 41 -8 43 C-10.86421104 43.63909724 -13.66904065 44.16875058 -16.5625 44.625 C-17.72362305 44.82609375 -17.72362305 44.82609375 -18.90820312 45.03125 C-24.33305667 45.91657165 -29.50500038 46.12076922 -35 46 C-34.67 45.34 -34.34 44.68 -34 44 C-33.34 44 -32.68 44 -32 44 C-32 43.34 -32 42.68 -32 42 C-31.34 42 -30.68 42 -30 42 C-29.73316406 41.40058594 -29.46632813 40.80117187 -29.19140625 40.18359375 C-27.98133591 37.96579271 -26.7742032 36.76381967 -24.9375 35.0625 C-21.83042321 31.62092929 -21.65701454 29.07345375 -21.5625 24.5 C-21.42356328 19.68167459 -21.04179478 17.17533002 -17.625 13.6875 C-15.08172671 11.45266623 -14.48216907 11 -11 11 C-11 9.35 -11 7.7 -11 6 C-7.67465243 4.89155081 -5.37817425 5.15545644 -2 6 C-2 5.34 -2 4.68 -2 4 C-1.34 4 -0.68 4 0 4 C0 2.68 0 1.36 0 0 Z " fill="#35100F" transform="translate(46,59)"/>
<path d="M0 0 C0.66 0 1.32 0 2 0 C1.67 1.32 1.34 2.64 1 4 C0.34 4 -0.32 4 -1 4 C-1 5.32 -1 6.64 -1 8 C-2.30307281 9.03912416 -3.64097057 10.03521154 -5 11 C-6.49150107 13.21016887 -6.49150107 13.21016887 -7.6875 15.625 C-9.94576271 19.94576271 -9.94576271 19.94576271 -11 21 C-11.02678477 22.99992915 -11.04629595 24.99995714 -11.0625 27 C-11.54098166 34.63052326 -14.62424995 37.93706299 -20 43 C-20.33 43.66 -20.66 44.32 -21 45 C-21.66 45 -22.32 45 -23 45 C-23 45.66 -23 46.32 -23 47 C-26.5486135 49.36574234 -27.5764525 49.10865265 -31.6875 48.625 C-32.68136719 48.51414063 -33.67523438 48.40328125 -34.69921875 48.2890625 C-35.45847656 48.19367188 -36.21773437 48.09828125 -37 48 C-37.43184885 42.73144399 -37.43184885 42.73144399 -37 40 C-33.97614005 37.32172405 -30.95073883 36.56439126 -27 36 C-26.896875 35.030625 -26.79375 34.06125 -26.6875 33.0625 C-26.05370121 28.51406161 -24.55244173 24.30582896 -23 20 C-23.66 19.67 -24.32 19.34 -25 19 C-21.47552448 13.33566434 -21.47552448 13.33566434 -18.875 11.5 C-16.26517672 9.41214138 -15.8430645 7.16149188 -15 4 C-13.7934375 4.0309375 -13.7934375 4.0309375 -12.5625 4.0625 C-10.06645115 4.29633621 -10.06645115 4.29633621 -9 3 C-7.865625 2.855625 -6.73125 2.71125 -5.5625 2.5625 C-1.95941003 2.35152449 -1.95941003 2.35152449 0 0 Z " fill="#6B6A6C" transform="translate(37,56)"/>
<path d="M0 0 C1.74216797 0.05414063 1.74216797 0.05414063 3.51953125 0.109375 C4.39996094 0.15578125 5.28039062 0.2021875 6.1875 0.25 C6.1875 1.57 6.1875 2.89 6.1875 4.25 C7.1775 4.25 8.1675 4.25 9.1875 4.25 C9.1875 5.9 9.1875 7.55 9.1875 9.25 C8.5275 9.25 7.8675 9.25 7.1875 9.25 C7.084375 9.9925 6.98125 10.735 6.875 11.5 C6.13158579 14.47365686 5.26098368 16.01701758 3.1875 18.25 C2.1975 18.58 1.2075 18.91 0.1875 19.25 C-2.40771192 21.70862182 -4.82027307 24.25879584 -7.1875 26.9375 C-10.41903997 29.78433283 -12.6529088 30.35283327 -16.8125 31.25 C-16.8125 29.93 -16.8125 28.61 -16.8125 27.25 C-17.8025 26.92 -18.7925 26.59 -19.8125 26.25 C-19.503125 25.59 -19.19375 24.93 -18.875 24.25 C-17.64717231 21.18741603 -17.64717231 21.18741603 -17.5 17.5 C-16.83923692 11.3792473 -13.870734 6.31181354 -9.56640625 2 C-6.12427255 -0.1873417 -4.0400633 -0.16323488 0 0 Z " fill="#9B9590" transform="translate(64.8125,11.75)"/>
<path d="M0 0 C3.33727786 1.17255709 5.77437487 2.18868404 8 5 C8 5.66 8 6.32 8 7 C8.66 7 9.32 7 10 7 C11.4606285 9.64738916 12 10.89448334 12 14 C9.525 13.505 9.525 13.505 7 13 C7 13.66 7 14.32 7 15 C5.35 15 3.7 15 2 15 C1.855625 16.11375 1.71125 17.2275 1.5625 18.375 C1 22 1 22 0 24 C-0.99 24.33 -1.98 24.66 -3 25 C-3.33 28.3 -3.66 31.6 -4 35 C-4.99 35 -5.98 35 -7 35 C-7 35.66 -7 36.32 -7 37 C-6.34 37 -5.68 37 -5 37 C-5 38.98 -5 40.96 -5 43 C-7.3359375 42.8125 -7.3359375 42.8125 -10 42 C-11.4140625 39.75 -11.4140625 39.75 -12.625 37 C-14.80409312 33.03851411 -14.80409312 33.03851411 -18.6875 30.9765625 C-23.20409823 30.43601218 -25.92699161 30.22643581 -29.6875 32.9375 C-30.3371875 33.9584375 -30.3371875 33.9584375 -31 35 C-30 27.57142857 -30 27.57142857 -29 24 C-27.68 23.67 -26.36 23.34 -25 23 C-25 23.66 -25 24.32 -25 25 C-24.34 25.33 -23.68 25.66 -23 26 C-23 27.32 -23 28.64 -23 30 C-21.53633658 29.60246179 -20.0791065 29.18118616 -18.625 28.75 C-17.81289063 28.51796875 -17.00078125 28.2859375 -16.1640625 28.046875 C-13.50722273 26.76161677 -13.07924516 25.68239574 -12 23 C-10.5 21.25 -10.5 21.25 -9 20 C-8.34 20 -7.68 20 -7 20 C-6.67 19.01 -6.34 18.02 -6 17 C-5.38125 16.7525 -4.7625 16.505 -4.125 16.25 C-0.81231437 14.30136139 -0.31381368 11.54729694 1 8 C1.66 8 2.32 8 3 8 C2.505 6.515 2.505 6.515 2 5 C2.33 4.34 2.66 3.68 3 3 C2.01 3 1.02 3 0 3 C0 2.01 0 1.02 0 0 Z " fill="#584140" transform="translate(71,13)"/>
<path d="M0 0 C0.33 0 0.66 0 1 0 C1 3.3 1 6.6 1 10 C1.99 10.33 2.98 10.66 4 11 C2.35 12.65 0.7 14.3 -1 16 C2.68266103 15.40049704 6.34543185 14.75241109 10 14 C10.33 14.66 10.66 15.32 11 16 C13.31 15.34 15.62 14.68 18 14 C19.0625 15.8125 19.0625 15.8125 20 18 C19.505 19.485 19.505 19.485 19 21 C18.01 20.67 17.02 20.34 16 20 C15.71125 20.61875 15.4225 21.2375 15.125 21.875 C14 24 14 24 12 26 C9.13578896 26.63909724 6.33095935 27.16875058 3.4375 27.625 C2.66341797 27.7590625 1.88933594 27.893125 1.09179688 28.03125 C-4.33305667 28.91657165 -9.50500038 29.12076922 -15 29 C-14.67 28.34 -14.34 27.68 -14 27 C-13.34 27 -12.68 27 -12 27 C-12 26.34 -12 25.68 -12 25 C-11.34 25 -10.68 25 -10 25 C-9.73316406 24.40058594 -9.46632813 23.80117187 -9.19140625 23.18359375 C-7.98133591 20.96579271 -6.7742032 19.76381967 -4.9375 18.0625 C-1.07423355 13.77727484 -1.23852417 9.25829614 -1.10546875 3.6953125 C-1 1 -1 1 0 0 Z " fill="#531A18" transform="translate(26,76)"/>
<path d="M0 0 C1.2065625 0.0309375 1.2065625 0.0309375 2.4375 0.0625 C1.31298273 3.0344385 0.21456209 5.39690687 -1.5625 8.0625 C-2.47 8.31 -3.3775 8.5575 -4.3125 8.8125 C-8.80382645 10.53993325 -11.24425964 12.84155293 -13.5625 17.0625 C-14.27392957 20.11674076 -14.68774053 23.12695614 -15.0703125 26.23828125 C-15.74540597 30.1120319 -16.9710259 32.14709163 -19.5625 35.0625 C-20.2225 35.0625 -20.8825 35.0625 -21.5625 35.0625 C-22.2225 37.7025 -22.8825 40.3425 -23.5625 43.0625 C-20.0975 42.5675 -20.0975 42.5675 -16.5625 42.0625 C-16.5625 42.7225 -16.5625 43.3825 -16.5625 44.0625 C-20.1111135 46.42824234 -21.1389525 46.17115265 -25.25 45.6875 C-26.24386719 45.57664063 -27.23773437 45.46578125 -28.26171875 45.3515625 C-29.02097656 45.25617188 -29.78023437 45.16078125 -30.5625 45.0625 C-30.99434885 39.79394399 -30.99434885 39.79394399 -30.5625 37.0625 C-27.53864005 34.38422405 -24.51323883 33.62689126 -20.5625 33.0625 C-20.459375 32.093125 -20.35625 31.12375 -20.25 30.125 C-19.61620121 25.57656161 -18.11494173 21.36832896 -16.5625 17.0625 C-17.2225 16.7325 -17.8825 16.4025 -18.5625 16.0625 C-15.03802448 10.39816434 -15.03802448 10.39816434 -12.4375 8.5625 C-9.82767672 6.47464138 -9.4055645 4.22399188 -8.5625 1.0625 C-7.3559375 1.0934375 -7.3559375 1.0934375 -6.125 1.125 C-3.0866539 1.050894 -3.0383461 0.074106 0 0 Z " fill="#5E5457" transform="translate(30.5625,58.9375)"/>
<path d="M0 0 C3.14737182 0.69941596 6.02588876 1.76078698 9 3 C8.01 3.33 7.02 3.66 6 4 C4.79172045 6.63776466 4.79172045 6.63776466 5 10 C6.91255637 12.10424767 8.95419699 13.76271606 11.21484375 15.484375 C11.80394531 15.98453125 12.39304687 16.4846875 13 17 C13 17.66 13 18.32 13 19 C14.2065625 18.9690625 14.2065625 18.9690625 15.4375 18.9375 C18 19 18 19 19 20 C20.63802872 20.36978426 22.28587044 20.69668783 23.9375 21 C28.78587699 21.8929385 28.78587699 21.8929385 31 23 C31 23.66 31 24.32 31 25 C21.16751511 25.75526911 15.65950211 25.15248816 8 19 C6.22845359 17.82329835 4.4363415 16.67697092 2.625 15.5625 C1.81289062 15.04816406 1.00078125 14.53382812 0.1640625 14.00390625 C-2.10091292 12.65247587 -2.10091292 12.65247587 -5 14 C-5.33 13.34 -5.66 12.68 -6 12 C-6.99 12 -7.98 12 -9 12 C-8.01 10.35 -7.02 8.7 -6 7 C-7.65 7.66 -9.3 8.32 -11 9 C-9.875 7.0625 -9.875 7.0625 -8 5 C-6.989375 4.835 -5.97875 4.67 -4.9375 4.5 C-3.4834375 4.2525 -3.4834375 4.2525 -2 4 C-0.56362302 2.04836882 -0.56362302 2.04836882 0 0 Z " fill="#1B0A0A" transform="translate(69,72)"/>
<path d="M0 0 C0 2.64 0 5.28 0 8 C-0.99 8.33 -1.98 8.66 -3 9 C-3.33 10.98 -3.66 12.96 -4 15 C-6.31 15 -8.62 15 -11 15 C-11 15.66 -11 16.32 -11 17 C-10.34 17 -9.68 17 -9 17 C-9 18.32 -9 19.64 -9 21 C-14.75 21.125 -14.75 21.125 -17 20 C-17.15451895 10.72886297 -17.15451895 10.72886297 -16 8 C-15.01 7.34 -14.02 6.68 -13 6 C-12.67 5.01 -12.34 4.02 -12 3 C-7.8693377 0.40632832 -4.84981776 -0.34641555 0 0 Z " fill="#C0BAB3" transform="translate(66,14)"/>
<path d="M0 0 C3.04214768 1.48130721 4.6940923 2.32140193 6.109375 5.4609375 C7.75909267 12.96514103 8.64096434 20.32406512 9 28 C10.18722656 28.40992188 10.18722656 28.40992188 11.3984375 28.828125 C15.00549501 30.45292568 15.48313296 32.41467791 17 36 C17.556875 36.928125 18.11375 37.85625 18.6875 38.8125 C20.40193847 42.97613629 20.26636875 46.56052085 20 51 C20.66 51 21.32 51 22 51 C22 52.32 22 53.64 22 55 C21.34 55 20.68 55 20 55 C19.505 52.525 19.505 52.525 19 50 C18.34 50 17.68 50 17 50 C17 49.34 17 48.68 17 48 C12.05 46.515 12.05 46.515 7 45 C8 42 8 42 9.5 40.75 C11.76247456 38.11044635 11.68138743 35.37729327 12 32 C11.38125 31.87625 10.7625 31.7525 10.125 31.625 C8 31 8 31 6 29 C5.91015625 26.2421875 5.91015625 26.2421875 6.0625 22.875 C6.17208417 17.04770034 5.3458358 13.27813055 3 8 C3 7.01 3 6.02 3 5 C1.02 5.99 1.02 5.99 -1 7 C-0.67 4.69 -0.34 2.38 0 0 Z " fill="#290C0B" transform="translate(85,27)"/>
<path d="M0 0 C3.33727786 1.17255709 5.77437487 2.18868404 8 5 C8 5.66 8 6.32 8 7 C8.66 7 9.32 7 10 7 C11.4606285 9.64738916 12 10.89448334 12 14 C9.525 13.505 9.525 13.505 7 13 C7 13.66 7 14.32 7 15 C5.35 15 3.7 15 2 15 C1.855625 16.11375 1.71125 17.2275 1.5625 18.375 C1 22 1 22 0 24 C-2.41877346 25.64131056 -3.6237636 26.03670599 -6.5625 25.75 C-9 25 -9 25 -12 23 C-10.625 21.5 -10.625 21.5 -9 20 C-8.34 20 -7.68 20 -7 20 C-6.67 19.01 -6.34 18.02 -6 17 C-5.38125 16.7525 -4.7625 16.505 -4.125 16.25 C-0.81231437 14.30136139 -0.31381368 11.54729694 1 8 C1.66 8 2.32 8 3 8 C2.67 7.01 2.34 6.02 2 5 C2.33 4.34 2.66 3.68 3 3 C2.01 3 1.02 3 0 3 C0 2.01 0 1.02 0 0 Z " fill="#6D5655" transform="translate(71,13)"/>
<path d="M0 0 C4.15891493 6.23837239 4.0778923 10.69359539 3.58203125 18.0390625 C3.71996094 19.01617187 3.85789062 19.99328125 4 21 C6.42634659 22.71943482 6.42634659 22.71943482 9 24 C9.5625 27.4375 9.5625 27.4375 9 31 C7 33.4375 7 33.4375 5 35 C4.34 33.68 3.68 32.36 3 31 C3.66 30.34 4.32 29.68 5 29 C5.99 29 6.98 29 8 29 C8 27.68 8 26.36 8 25 C6.35 24.67 4.7 24.34 3 24 C3 23.34 3 22.68 3 22 C1.22825181 22.08723378 -0.54247377 22.19541655 -2.3125 22.3125 C-3.29863281 22.37050781 -4.28476563 22.42851563 -5.30078125 22.48828125 C-8.24384457 23.04622813 -9.18182999 23.68540132 -11 26 C-11.99 25.67 -12.98 25.34 -14 25 C-13.32904297 24.27296875 -13.32904297 24.27296875 -12.64453125 23.53125 C-6.00073765 16.16499697 -1.54134173 9.93820337 0 0 Z " fill="#1E0909" transform="translate(88,35)"/>
<path d="M0 0 C0 3 0 3 -1.5 4.6875 C-1.995 5.120625 -2.49 5.55375 -3 6 C-2.34 6 -1.68 6 -1 6 C-1 7.65 -1 9.3 -1 11 C2.465 10.505 2.465 10.505 6 10 C5.875 12.25 5.875 12.25 5 15 C2.41649868 16.97885207 -0.09529743 18.54764872 -3 20 C-3.66 18.35 -4.32 16.7 -5 15 C-9.455 15.495 -9.455 15.495 -14 16 C-13.67 15.01 -13.34 14.02 -13 13 C-13.66 12.67 -14.32 12.34 -15 12 C-14.34 11.34 -13.68 10.68 -13 10 C-12.89558594 9.19175781 -12.79117188 8.38351563 -12.68359375 7.55078125 C-12 5 -12 5 -9.78515625 3.41796875 C-8.88667969 3.01191406 -7.98820312 2.60585937 -7.0625 2.1875 C-6.16660156 1.76855469 -5.27070312 1.34960938 -4.34765625 0.91796875 C-2 0 -2 0 0 0 Z " fill="#471615" transform="translate(49,77)"/>
<path d="M0 0 C0.66 0.33 1.32 0.66 2 1 C1.67 1.99 1.34 2.98 1 4 C0.01 4.33 -0.98 4.66 -2 5 C-4.84087778 7.95924769 -5.89854591 11.31214978 -7.24609375 15.09375 C-8.16471296 17.41647629 -9.27076156 19.19557728 -11 21 C-11.66 21 -12.32 21 -13 21 C-13 21.66 -13 22.32 -13 23 C-14.98 23.33 -16.96 23.66 -19 24 C-19.33 23.34 -19.66 22.68 -20 22 C-18.68 22 -17.36 22 -16 22 C-16.185625 21.38125 -16.37125 20.7625 -16.5625 20.125 C-17 18 -17 18 -16 16 C-16.66 16 -17.32 16 -18 16 C-18 15.34 -18 14.68 -18 14 C-16.35 13.67 -14.7 13.34 -13 13 C-12.67 13.66 -12.34 14.32 -12 15 C-10.68 12.69 -9.36 10.38 -8 8 C-9.98 8.33 -11.96 8.66 -14 9 C-14 7.68 -14 6.36 -14 5 C-13.40832031 4.80664062 -12.81664063 4.61328125 -12.20703125 4.4140625 C-8.77305494 3.28247487 -5.39149191 2.1665923 -2.0625 0.75 C-1.381875 0.5025 -0.70125 0.255 0 0 Z " fill="#271B1E" transform="translate(82,34)"/>
<path d="M0 0 C1.32 0.33 2.64 0.66 4 1 C4 2.32 4 3.64 4 5 C4.66 5 5.32 5 6 5 C8.60018816 8.90028225 8.15085514 12.47434569 8 17 C8.66 17 9.32 17 10 17 C10.6708712 18.6232687 11.33657029 20.24867578 12 21.875 C12.37125 22.77992187 12.7425 23.68484375 13.125 24.6171875 C14 27 14 27 14 29 C14.99 29.33 15.98 29.66 17 30 C17 30.66 17 31.32 17 32 C19.31 32.66 21.62 33.32 24 34 C24 34.66 24 35.32 24 36 C25.32 36 26.64 36 28 36 C28 37.65 28 39.3 28 41 C26.35 41 24.7 41 23 41 C23 40.34 23 39.68 23 39 C21.68 39 20.36 39 19 39 C18.773125 38.278125 18.54625 37.55625 18.3125 36.8125 C16.74262951 33.4484918 14.71030608 31.50703313 12 29 C9.77174356 26.77174356 9.30760631 25.34238372 8.375 22.375 C8.11460938 21.55773437 7.85421875 20.74046875 7.5859375 19.8984375 C7.39257812 19.27195312 7.19921875 18.64546875 7 18 C6.34 18 5.68 18 5 18 C4.89042969 17.18015625 4.78085938 16.3603125 4.66796875 15.515625 C4.43013672 13.89914063 4.43013672 13.89914063 4.1875 12.25 C4.03667969 11.18265625 3.88585937 10.1153125 3.73046875 9.015625 C2.98034465 5.91885597 1.99055009 4.42138148 0 2 C0 1.34 0 0.68 0 0 Z " fill="#431919" transform="translate(100,60)"/>
<path d="M0 0 C1.5625 1 1.5625 1 3 3 C2.82174529 5.80751161 2.52406698 8.26933522 2 11 C1.938125 11.78375 1.87625 12.5675 1.8125 13.375 C1 15 1 15 -1.75 16.125 C-2.8225 16.41375 -3.895 16.7025 -5 17 C-6.3303125 17.556875 -6.3303125 17.556875 -7.6875 18.125 C-10 19 -10 19 -13 19 C-13 20.32 -13 21.64 -13 23 C-11.02 22.67 -9.04 22.34 -7 22 C-8.12451727 24.9719385 -9.22293791 27.33440687 -11 30 C-11.66 29.67 -12.32 29.34 -13 29 C-12.67 28.34 -12.34 27.68 -12 27 C-12.66 27 -13.32 27 -14 27 C-14 24.03 -14 21.06 -14 18 C-12.68 17.67 -11.36 17.34 -10 17 C-9.34 14.03 -8.68 11.06 -8 8 C-6.35 8 -4.7 8 -3 8 C-3 7.34 -3 6.68 -3 6 C-1.35 6.33 0.3 6.66 2 7 C1.34 4.69 0.68 2.38 0 0 Z " fill="#392728" transform="translate(81,20)"/>
<path d="M0 0 C1.2065625 0.0309375 1.2065625 0.0309375 2.4375 0.0625 C1.31298273 3.0344385 0.21456209 5.39690687 -1.5625 8.0625 C-3.5625 8.72916667 -5.5625 9.39583333 -7.5625 10.0625 C-8.5525 11.5475 -8.5525 11.5475 -9.5625 13.0625 C-12.6875 13.75 -12.6875 13.75 -15.5625 14.0625 C-15.8925 15.0525 -16.2225 16.0425 -16.5625 17.0625 C-17.2225 16.7325 -17.8825 16.4025 -18.5625 16.0625 C-15.03802448 10.39816434 -15.03802448 10.39816434 -12.4375 8.5625 C-9.82767672 6.47464138 -9.4055645 4.22399188 -8.5625 1.0625 C-7.3559375 1.0934375 -7.3559375 1.0934375 -6.125 1.125 C-3.0866539 1.050894 -3.0383461 0.074106 0 0 Z " fill="#4E4F55" transform="translate(30.5625,58.9375)"/>
<path d="M0 0 C0 0.66 0 1.32 0 2 C1.98 2.66 3.96 3.32 6 4 C6 5.32 6 6.64 6 8 C5.34 8 4.68 8 4 8 C4 8.66 4 9.32 4 10 C1.03 10 -1.94 10 -5 10 C-4.896875 10.763125 -4.79375 11.52625 -4.6875 12.3125 C-4.790625 13.199375 -4.89375 14.08625 -5 15 C-7.375 16.75 -7.375 16.75 -10 18 C-10.66 18.33 -11.32 18.66 -12 19 C-10.49946106 15.88349604 -8.93818042 12.86850702 -7 10 C-6.01 9.67 -5.02 9.34 -4 9 C-4 7.68 -4 6.36 -4 5 C-3.34 4.67 -2.68 4.34 -2 4 C-1.67 3.01 -1.34 2.02 -1 1 C-2.32 1.99 -3.64 2.98 -5 4 C-5.66 3.67 -6.32 3.34 -7 3 C-4.49955934 -0.00052879 -4.2621484 0 0 0 Z " fill="#802D2C" transform="translate(40,55)"/>
<path d="M0 0 C3.04214768 1.48130721 4.6940923 2.32140193 6.109375 5.4609375 C7.75909267 12.96514103 8.64096434 20.32406512 9 28 C10.21236328 28.41378906 10.21236328 28.41378906 11.44921875 28.8359375 C12.29097656 29.22007813 13.13273437 29.60421875 14 30 C14.8125 32.625 14.8125 32.625 15 35 C14.01 35 13.02 35 12 35 C12 34.01 12 33.02 12 32 C11.38125 31.87625 10.7625 31.7525 10.125 31.625 C8 31 8 31 6 29 C5.91015625 26.2421875 5.91015625 26.2421875 6.0625 22.875 C6.17208417 17.04770034 5.3458358 13.27813055 3 8 C3 7.01 3 6.02 3 5 C1.02 5.99 1.02 5.99 -1 7 C-0.67 4.69 -0.34 2.38 0 0 Z " fill="#371616" transform="translate(85,27)"/>
<path d="M0 0 C0.33 0.66 0.66 1.32 1 2 C0.67 2.66 0.34 3.32 0 4 C1.65 3.67 3.3 3.34 5 3 C5 4.32 5 5.64 5 7 C6.32 7.33 7.64 7.66 9 8 C8.67 8.66 8.34 9.32 8 10 C2.31648386 11.0149136 -3.23917868 11.12001711 -9 11 C-8.67 10.34 -8.34 9.68 -8 9 C-7.34 9 -6.68 9 -6 9 C-6 8.34 -6 7.68 -6 7 C-5.34 7 -4.68 7 -4 7 C-3.71125 6.401875 -3.4225 5.80375 -3.125 5.1875 C-2 3 -2 3 0 0 Z " fill="#531B1A" transform="translate(20,94)"/>
<path d="M0 0 C3.33727786 1.17255709 5.77437487 2.18868404 8 5 C8 5.66 8 6.32 8 7 C8.66 7 9.32 7 10 7 C9.67 8.65 9.34 10.3 9 12 C7.68 11.34 6.36 10.68 5 10 C5 11.32 5 12.64 5 14 C3.35 14 1.7 14 0 14 C-0.226875 14.639375 -0.45375 15.27875 -0.6875 15.9375 C-2 18 -2 18 -4.625 18.75 C-5.40875 18.8325 -6.1925 18.915 -7 19 C-6 17 -6 17 -4.125 16.3125 C-0.84421501 14.2861328 -0.32083771 11.56626181 1 8 C1.66 8 2.32 8 3 8 C2.67 7.01 2.34 6.02 2 5 C2.33 4.34 2.66 3.68 3 3 C2.01 3 1.02 3 0 3 C0 2.01 0 1.02 0 0 Z " fill="#757273" transform="translate(71,13)"/>
<path d="M0 0 C1.98 0 3.96 0 6 0 C6 0.66 6 1.32 6 2 C6.99 2 7.98 2 9 2 C9.95465783 4.16967689 10.14401212 5.56328793 9.3984375 7.82421875 C8.64129615 9.5684743 7.82390802 11.28627131 7 13 C6.67 11.68 6.34 10.36 6 9 C5.34 9 4.68 9 4 9 C3.67 8.34 3.34 7.68 3 7 C1.02 8.32 -0.96 9.64 -3 11 C-3.66 10.67 -4.32 10.34 -5 10 C-4.34 9.01 -3.68 8.02 -3 7 C-1.68 7 -0.36 7 1 7 C0.01 6.01 -0.98 5.02 -2 4 C-1.34 2.68 -0.68 1.36 0 0 Z " fill="#17171F" transform="translate(59,94)"/>
<path d="M0 0 C-1 3 -1 3 -3.9375 4.6875 C-7 6 -7 6 -9 6 C-8.87625 6.721875 -8.7525 7.44375 -8.625 8.1875 C-9 11 -9 11 -11.5625 13.75 C-14.84570036 16.24962032 -17.88276389 16.75296583 -22 17 C-17.32345248 10.89450741 -17.32345248 10.89450741 -13 10 C-12.71382812 9.39929688 -12.42765625 8.79859375 -12.1328125 8.1796875 C-10.79670742 5.60883703 -9.38304891 4.46124277 -7.0625 2.75 C-6.37285156 2.22921875 -5.68320312 1.7084375 -4.97265625 1.171875 C-3 0 -3 0 0 0 Z " fill="#2E0E0D" transform="translate(46,76)"/>
<path d="M0 0 C1.32 0 2.64 0 4 0 C4 7.26 4 14.52 4 22 C2.34250303 18.68500606 1.0304322 15.54921564 -0.1875 12.0625 C-0.55230469 11.04285156 -0.91710937 10.02320312 -1.29296875 8.97265625 C-2.03809109 5.83984907 -1.94377767 4.04954751 -1 1 C-0.67 0.67 -0.34 0.34 0 0 Z " fill="#46484F" transform="translate(124,54)"/>
<path d="M0 0 C-0.58678331 3.52069985 -1.35649921 5.71299843 -3 9 C-6.3 9 -9.6 9 -13 9 C-9.64546138 4.56016948 -6.11017563 0 0 0 Z " fill="#240B0A" transform="translate(27,119)"/>
<path d="M0 0 C0.66 0.33 1.32 0.66 2 1 C1.2884375 2.485 1.2884375 2.485 0.5625 4 C-0.6375132 6.75003024 -1.20733761 9.076143 -1.4375 12.0625 C-2.06863397 16.48043777 -3.11128333 18.62983056 -6 22 C-8.75 23.375 -8.75 23.375 -11 24 C-10.505 22.515 -10.505 22.515 -10 21 C-9.01 20.67 -8.02 20.34 -7 20 C-6.814375 18.453125 -6.814375 18.453125 -6.625 16.875 C-6.0564089 13.34973518 -5.21026524 10.34602742 -4 7 C-3.67 5.906875 -3.34 4.81375 -3 3.6875 C-2 1 -2 1 0 0 Z " fill="#595A5E" transform="translate(17,72)"/>
<path d="M0 0 C0.66 0.99 1.32 1.98 2 3 C7.445 2.505 7.445 2.505 13 2 C11.7954483 4.97122753 10.75946836 6.65527677 7.796875 8 C5.54413248 8.73674598 3.29484731 9.40824692 1 10 C1 8.68 1 7.36 1 6 C0.01 5.67 -0.98 5.34 -2 5 C-1.34 3.35 -0.68 1.7 0 0 Z " fill="#9C9691" transform="translate(47,33)"/>
<path d="M0 0 C4.95 0.33 9.9 0.66 15 1 C15 2.98 15 4.96 15 7 C9.55432314 5.97137215 4.88182883 4.75385216 0 2 C0 1.34 0 0.68 0 0 Z " fill="#421413" transform="translate(113,105)"/>
<path d="M0 0 C1.5625 1 1.5625 1 3 3 C3.02404235 6.84677671 2.21103438 10.36689686 1 14 C-3.455 13.01 -3.455 13.01 -8 12 C-8 10.68 -8 9.36 -8 8 C-6.35 8 -4.7 8 -3 8 C-3 7.34 -3 6.68 -3 6 C-1.35 6.33 0.3 6.66 2 7 C1.34 4.69 0.68 2.38 0 0 Z " fill="#3B373D" transform="translate(81,20)"/>
<path d="M0 0 C0.763125 0.20625 1.52625 0.4125 2.3125 0.625 C2.6425 2.275 2.9725 3.925 3.3125 5.625 C0.8375 7.11 0.8375 7.11 -1.6875 8.625 C-1.6875 7.965 -1.6875 7.305 -1.6875 6.625 C-2.6775 6.625 -3.6675 6.625 -4.6875 6.625 C-5.0175 4.975 -5.3475 3.325 -5.6875 1.625 C-2.6875 -0.375 -2.6875 -0.375 0 0 Z " fill="#26282F" transform="translate(65.6875,69.375)"/>
<path d="M0 0 C2.31 0.66 4.62 1.32 7 2 C5.66666667 5.33333333 4.33333333 8.66666667 3 12 C2.67 11.34 2.34 10.68 2 10 C0.68 10 -0.64 10 -2 10 C-1.67 8.68 -1.34 7.36 -1 6 C-0.34 6 0.32 6 1 6 C1 5.01 1 4.02 1 3 C0.01 2.67 -0.98 2.34 -2 2 C-1.34 1.34 -0.68 0.68 0 0 Z " fill="#D1CDC5" transform="translate(58,16)"/>
<path d="M0 0 C-0.33 1.32 -0.66 2.64 -1 4 C-1.66 4 -2.32 4 -3 4 C-3 5.32 -3 6.64 -3 8 C-3.5775 8.4125 -4.155 8.825 -4.75 9.25 C-8.05644921 11.82168272 -9.31800292 15.23340015 -11 19 C-12.44839346 14.52759588 -11.05234254 12.17798303 -9 8 C-7.01710753 4.2066405 -4.74941859 0 0 0 Z " fill="#AB575A" transform="translate(39,56)"/>
<path d="M0 0 C1.5 1.25 1.5 1.25 3 3 C3 4.32 3 5.64 3 7 C3.66 7.33 4.32 7.66 5 8 C4.0925 7.9175 3.185 7.835 2.25 7.75 C-1.10041408 7.68975201 -1.10041408 7.68975201 -3.375 10 C-3.91125 10.66 -4.4475 11.32 -5 12 C-3.79881657 3.07692308 -3.79881657 3.07692308 -3 1 C-2.01 0.67 -1.02 0.34 0 0 Z " fill="#744747" transform="translate(45,36)"/>
<path d="M0 0 C1.35242344 2.70484687 1 4.9993319 1 8 C1.33 8.99 1.66 9.98 2 11 C3.98 11 5.96 11 8 11 C8 9.68 8 8.36 8 7 C7.34 7 6.68 7 6 7 C6 6.34 6 5.68 6 5 C7.98 5 9.96 5 12 5 C11.01 5.33 10.02 5.66 9 6 C9.83333333 8.16666667 9.83333333 8.16666667 12 9 C10.32367504 11.01158996 9.35133561 11.91370704 6.7734375 12.546875 C5.98195313 12.61390625 5.19046875 12.6809375 4.375 12.75 C3.57835937 12.82734375 2.78171875 12.9046875 1.9609375 12.984375 C1.31382813 12.98953125 0.66671875 12.9946875 0 13 C-1 12 -1 12 -1.1328125 9.53125 C-1.13023438 8.5309375 -1.12765625 7.530625 -1.125 6.5 C-1.12757812 5.4996875 -1.13015625 4.499375 -1.1328125 3.46875 C-1 1 -1 1 0 0 Z " fill="#ADA59F" transform="translate(49,24)"/>
<path d="M0 0 C0.99 0 1.98 0 3 0 C2.67 2.97 2.34 5.94 2 9 C0.02 9.33 -1.96 9.66 -4 10 C-3.43768609 6.06380262 -2.38314183 3.20807554 0 0 Z " fill="#817B79" transform="translate(21,83)"/>
<path d="M0 0 C1.65 0.33 3.3 0.66 5 1 C1.72647631 6.00656565 -0.92204389 8.7275394 -6 12 C-7.38868516 14.10039331 -7.38868516 14.10039331 -8 16 C-8.66 15.67 -9.32 15.34 -10 15 C-6.47552448 9.33566434 -6.47552448 9.33566434 -3.875 7.5 C-1.26517672 5.41214138 -0.8430645 3.16149188 0 0 Z " fill="#3D4048" transform="translate(22,60)"/>
<path d="M0 0 C2.31 0 4.62 0 7 0 C7 1.65 7 3.3 7 5 C6.34 5 5.68 5 5 5 C5.33 5.99 5.66 6.98 6 8 C4.35 7.67 2.7 7.34 1 7 C0.67 4.69 0.34 2.38 0 0 Z " fill="#74524E" transform="translate(59,43)"/>
<path d="M0 0 C0 3.04561282 -0.4373184 5.69825402 -1 8.6875 C-1.185625 9.68136719 -1.37125 10.67523438 -1.5625 11.69921875 C-1.706875 12.45847656 -1.85125 13.21773437 -2 14 C-4.475 13.01 -4.475 13.01 -7 12 C-6.38801624 8.56049636 -5.07941153 6.48435515 -2.9375 3.75 C-2.38964844 3.04359375 -1.84179688 2.3371875 -1.27734375 1.609375 C-0.85582031 1.07828125 -0.43429688 0.5471875 0 0 Z " fill="#443233" transform="translate(49,22)"/>
<path d="M0 0 C0.66 1.32 1.32 2.64 2 4 C1.01 4.33 0.02 4.66 -1 5 C-1.33 5.99 -1.66 6.98 -2 8 C-4.64 8 -7.28 8 -10 8 C-9.67 9.98 -9.34 11.96 -9 14 C-11.475 13.01 -11.475 13.01 -14 12 C-13.01 11.67 -12.02 11.34 -11 11 C-11 9.35 -11 7.7 -11 6 C-7.67465243 4.89155081 -5.37817425 5.15545644 -2 6 C-2 5.34 -2 4.68 -2 4 C-1.34 4 -0.68 4 0 4 C0 2.68 0 1.36 0 0 Z " fill="#4F1817" transform="translate(46,59)"/>
<path d="M0 0 C1.32 0 2.64 0 4 0 C4 0.66 4 1.32 4 2 C4.99 1.67 5.98 1.34 7 1 C6.44225728 4.23490776 5.62788492 5.97855006 3 8 C2.01 8 1.02 8 0 8 C0 5.36 0 2.72 0 0 Z " fill="#270C0B" transform="translate(27,77)"/>
<path d="M0 0 C0.66 0.33 1.32 0.66 2 1 C1.67 1.66 1.34 2.32 1 3 C2.65 2.67 4.3 2.34 6 2 C5.67 2.99 5.34 3.98 5 5 C4.01 5.33 3.02 5.66 2 6 C0.62804426 7.29355827 -0.71182656 8.62298702 -2 10 C-4 8 -4 8 -5 5 C-4.360625 4.731875 -3.72125 4.46375 -3.0625 4.1875 C-0.66868314 3.11332248 -0.66868314 3.11332248 0 0 Z " fill="#A39C96" transform="translate(63,25)"/>
<path d="M0 0 C0.33 0 0.66 0 1 0 C1 3.3 1 6.6 1 10 C1.99 10.33 2.98 10.66 4 11 C2.35 12.65 0.7 14.3 -1 16 C-1.66 15.67 -2.32 15.34 -3 15 C-2.67 14.67 -2.34 14.34 -2 14 C-1.79068103 11.83703727 -1.63202931 9.6690529 -1.5 7.5 C-1.11111111 1.11111111 -1.11111111 1.11111111 0 0 Z " fill="#532F2F" transform="translate(26,76)"/>
<path d="M0 0 C3.63 0.33 7.26 0.66 11 1 C11 1.99 11 2.98 11 4 C10.11248047 3.82210937 10.11248047 3.82210937 9.20703125 3.640625 C3.82034784 2.70518746 3.82034784 2.70518746 -1.0625 4.9375 C-2.0215625 5.9584375 -2.0215625 5.9584375 -3 7 C-2.38722388 4.03824877 -1.74627478 2.61941217 0 0 Z " fill="#1C1317" transform="translate(44,43)"/>
<path d="M0 0 C0 0.99 0 1.98 0 3 C1.65 3.33 3.3 3.66 5 4 C5 4.66 5 5.32 5 6 C0.8803623 7.29243536 -2.66831683 8.26252625 -7 8 C-6.67 7.34 -6.34 6.68 -6 6 C-5.34 6 -4.68 6 -4 6 C-4 5.34 -4 4.68 -4 4 C-3.34 4 -2.68 4 -2 4 C-1.34 2.68 -0.68 1.36 0 0 Z " fill="#7E3736" transform="translate(18,97)"/>
<path d="M0 0 C0.99 0.33 1.98 0.66 3 1 C2.45730469 1.47050781 1.91460937 1.94101563 1.35546875 2.42578125 C0.28232422 3.35970703 0.28232422 3.35970703 -0.8125 4.3125 C-1.52019531 4.92738281 -2.22789063 5.54226562 -2.95703125 6.17578125 C-4.70136739 7.73334335 -6.36778041 9.32658875 -8 11 C-9.32 10.34 -10.64 9.68 -12 9 C-11.319375 8.62875 -10.63875 8.2575 -9.9375 7.875 C-6.83082035 5.89201299 -4.3122872 3.6406349 -1.6484375 1.109375 C-0.83246094 0.56023437 -0.83246094 0.56023437 0 0 Z " fill="#4A1615" transform="translate(39,76)"/>
<path d="M0 0 C0.33 0 0.66 0 1 0 C0.67 4.95 0.34 9.9 0 15 C-0.99 14.67 -1.98 14.34 -3 14 C-3.08153933 12.41753293 -3.13943557 10.83383727 -3.1875 9.25 C-3.22230469 8.36828125 -3.25710937 7.4865625 -3.29296875 6.578125 C-2.94779578 3.54060287 -2.05721814 2.21785733 0 0 Z " fill="#2A181A" transform="translate(50,63)"/>
<path d="M0 0 C-0.33 0.99 -0.66 1.98 -1 3 C-1.99 3 -2.98 3 -4 3 C-4 3.66 -4 4.32 -4 5 C-2.68 5.33 -1.36 5.66 0 6 C-2.78823655 7.0326802 -3.8677274 7.04509293 -6.75 6.0625 C-7.4925 5.711875 -8.235 5.36125 -9 5 C-4.5 0 -4.5 0 0 0 Z " fill="#604645" transform="translate(68,32)"/>
<path d="M0 0 C5.75 1.75 5.75 1.75 8 4 C2.375 6 2.375 6 -1 6 C-1.042721 4.33388095 -1.04063832 2.66617115 -1 1 C-0.67 0.67 -0.34 0.34 0 0 Z " fill="#282226" transform="translate(74,31)"/>
<path d="M0 0 C4.92127034 -0.16682272 8.50343896 -0.24828052 13 2 C13 2.33 13 2.66 13 3 C9.04 3 5.08 3 1 3 C0.67 2.01 0.34 1.02 0 0 Z " fill="#5E1E1C" transform="translate(93,99)"/>
<path d="M0 0 C2.97 0.33 5.94 0.66 9 1 C9 2.32 9 3.64 9 5 C7.35 5 5.7 5 4 5 C4 4.34 4 3.68 4 3 C2.68 3 1.36 3 0 3 C0 2.01 0 1.02 0 0 Z " fill="#5D2221" transform="translate(119,96)"/>
<path d="M0 0 C1.41750563 0.11509661 2.83401169 0.24253658 4.25 0.375 C5.03890625 0.44460937 5.8278125 0.51421875 6.640625 0.5859375 C9.085877 1.01507113 10.84836903 1.78600638 13 3 C10.69 3 8.38 3 6 3 C6 3.66 6 4.32 6 5 C4.125 4.75 4.125 4.75 2 4 C0.8671875 1.953125 0.8671875 1.953125 0 0 Z " fill="#401312" transform="translate(87,96)"/>
<path d="M0 0 C0.66 0 1.32 0 2 0 C2 3.3 2 6.6 2 10 C2.66 10 3.32 10 4 10 C4 11.32 4 12.64 4 14 C3.01 14 2.02 14 1 14 C-0.20568053 9.32798795 -0.09382426 4.78503708 0 0 Z " fill="#2C1C1F" transform="translate(81,77)"/>
<path d="M0 0 C1.98 0.66 3.96 1.32 6 2 C6 3.32 6 4.64 6 6 C5.34 6 4.68 6 4 6 C3.67 6.66 3.34 7.32 3 8 C3 7.34 3 6.68 3 6 C2.01 5.67 1.02 5.34 0 5 C0 3.35 0 1.7 0 0 Z " fill="#722624" transform="translate(40,57)"/>
<path d="M0 0 C0.66 0.99 1.32 1.98 2 3 C2.99 3 3.98 3 5 3 C4.67 3.99 4.34 4.98 4 6 C1.36 6 -1.28 6 -4 6 C-2.84826645 3.53199953 -1.95216435 1.95216435 0 0 Z " fill="#501817" transform="translate(31,71)"/>
<path d="M0 0 C0.99 0.33 1.98 0.66 3 1 C3 1.66 3 2.32 3 3 C5.31 3.66 7.62 4.32 10 5 C10 5.66 10 6.32 10 7 C11.32 7.33 12.64 7.66 14 8 C6.20894514 7.96605205 6.20894514 7.96605205 3.2890625 5.6328125 C0 1.65932081 0 1.65932081 0 0 Z " fill="#473E44" transform="translate(114,89)"/>
<path d="M0 0 C2.31 0 4.62 0 7 0 C7 1.65 7 3.3 7 5 C4.69 4.34 2.38 3.68 0 3 C0 2.01 0 1.02 0 0 Z " fill="#561A18" transform="translate(121,107)"/>
<path d="M0 0 C0.27457031 0.55429688 0.54914063 1.10859375 0.83203125 1.6796875 C1.64634869 3.2974285 2.47853214 4.90624671 3.32421875 6.5078125 C3.77410156 7.37148437 4.22398438 8.23515625 4.6875 9.125 C5.14511719 9.99382812 5.60273437 10.86265625 6.07421875 11.7578125 C6.37972656 12.49773437 6.68523437 13.23765625 7 14 C6.67 14.66 6.34 15.32 6 16 C0.8753205 11.00672254 0.15346252 7.05927607 0 0 Z " fill="#46292B" transform="translate(109,77)"/>
<path d="M0 0 C1.32 0.33 2.64 0.66 4 1 C4 2.32 4 3.64 4 5 C4.66 5 5.32 5 6 5 C7.42944945 7.35438733 8.08661261 8.48032433 7.625 11.25 C7.41875 11.8275 7.2125 12.405 7 13 C6.67 11.68 6.34 10.36 6 9 C5.34 9 4.68 9 4 9 C2.47551369 6.0173094 1.06059933 3.181798 0 0 Z " fill="#53292A" transform="translate(100,60)"/>
<path d="M0 0 C2 2 2 2 2 5 C0.35 4.67 -1.3 4.34 -3 4 C-3 4.66 -3 5.32 -3 6 C-4.65 6 -6.3 6 -8 6 C-7.01 5.67 -6.02 5.34 -5 5 C-5 3.68 -5 2.36 -5 1 C-3.68 1 -2.36 1 -1 1 C-0.67 0.67 -0.34 0.34 0 0 Z " fill="#575054" transform="translate(81,22)"/>
<path d="M0 0 C-0.99 1.98 -1.98 3.96 -3 6 C-4.32 6 -5.64 6 -7 6 C-6.75 3.625 -6.75 3.625 -6 1 C-2.69333333 -1.34666667 -2.69333333 -1.34666667 0 0 Z " fill="#494B52" transform="translate(7,94)"/>
<path d="M0 0 C-2.51830747 3.12270126 -3.7261549 3.94523098 -7.75 4.75 C-9.35875 4.87375 -9.35875 4.87375 -11 5 C-11 4.34 -11 3.68 -11 3 C-9.68 3 -8.36 3 -7 3 C-7 2.34 -7 1.68 -7 1 C-3.375 -1.125 -3.375 -1.125 0 0 Z " fill="#5E1D1B" transform="translate(36,91)"/>
<path d="M0 0 C0.5534764 2.07553648 1 3.84365964 1 6 C-1.375 5.75 -1.375 5.75 -4 5 C-5.3125 2.9375 -5.3125 2.9375 -6 1 C-4.02 0.67 -2.04 0.34 0 0 Z " fill="#422D2D" transform="translate(65,50)"/>
<path d="M0 0 C0 2.31 0 4.62 0 7 C-1.32 7.33 -2.64 7.66 -4 8 C-4 7.01 -4 6.02 -4 5 C-3.34 4.67 -2.68 4.34 -2 4 C-1.67 3.01 -1.34 2.02 -1 1 C-2.32 1.99 -3.64 2.98 -5 4 C-5.66 3.67 -6.32 3.34 -7 3 C-4.49955934 -0.00052879 -4.2621484 0 0 0 Z " fill="#8C4346" transform="translate(40,55)"/>
<path d="M0 0 C0.33 0.66 0.66 1.32 1 2 C0.67 2.66 0.34 3.32 0 4 C1.32 4 2.64 4 4 4 C4 5.65 4 7.3 4 9 C3.67 8.34 3.34 7.68 3 7 C1.02 7 -0.96 7 -3 7 C-2.01 4.69 -1.02 2.38 0 0 Z " fill="#662624" transform="translate(20,94)"/>
<path d="M0 0 C0.66 0 1.32 0 2 0 C1.42655063 2.86724686 1.1385485 3.8614515 -1 6 C-3.625 6.125 -3.625 6.125 -6 6 C-4 4 -2 2 0 0 Z " fill="#1E0A09" transform="translate(46,68)"/>
<path d="M0 0 C0 1.65 0 3.3 0 5 C-0.66 5 -1.32 5 -2 5 C-2.33 6.98 -2.66 8.96 -3 11 C-3.33 11 -3.66 11 -4 11 C-4.3682455 3.51234156 -4.3682455 3.51234156 -2.5625 1 C-1 0 -1 0 0 0 Z " fill="#CAC5BE" transform="translate(53,23)"/>
<path d="M0 0 C2.375 0.625 2.375 0.625 5 2 C6.3125 5.125 6.3125 5.125 7 8 C6.01 8.33 5.02 8.66 4 9 C3.67 7.02 3.34 5.04 3 3 C2.01 3 1.02 3 0 3 C0 2.01 0 1.02 0 0 Z " fill="#767272" transform="translate(71,13)"/>
<path d="M0 0 C0.33 0.66 0.66 1.32 1 2 C-2.41176471 8.70588235 -2.41176471 8.70588235 -5 10 C-4.56802365 5.2482602 -3.67230705 3.07999946 0 0 Z " fill="#171319" transform="translate(75,45)"/>
<path d="M0 0 C1.65 0.33 3.3 0.66 5 1 C5 2.32 5 3.64 5 5 C2.03 4.505 2.03 4.505 -1 4 C-0.67 2.68 -0.34 1.36 0 0 Z " fill="#342325" transform="translate(59,37)"/>
<path d="M0 0 C-0.33 1.32 -0.66 2.64 -1 4 C-1.66 4 -2.32 4 -3 4 C-3.33 4.99 -3.66 5.98 -4 7 C-4.66 7 -5.32 7 -6 7 C-6 5.68 -6 4.36 -6 3 C-2.78571429 0 -2.78571429 0 0 0 Z " fill="#C35E63" transform="translate(39,56)"/>
<path d="M0 0 C1.65 0 3.3 0 5 0 C5 0.66 5 1.32 5 2 C6.65 2 8.3 2 10 2 C7.64046906 4.35953094 6.22104383 4.49141413 3 5 C3 3.68 3 2.36 3 1 C2.01 0.67 1.02 0.34 0 0 Z " fill="#817B7A" transform="translate(45,38)"/>
<path d="M0 0 C0 0.99 0 1.98 0 3 C-2.31 3.33 -4.62 3.66 -7 4 C-7 3.01 -7 2.02 -7 1 C-4 0 -4 0 0 0 Z " fill="#1A151A" transform="translate(75,38)"/>
<path d="M0 0 C0.66 0 1.32 0 2 0 C1.67 2.64 1.34 5.28 1 8 C0.01 8.33 -0.98 8.66 -2 9 C-1.34 6.03 -0.68 3.06 0 0 Z " fill="#442A2A" transform="translate(46,83)"/>
<path d="M0 0 C1.25 2.375 1.25 2.375 2 5 C1.67 5.99 1.34 6.98 1 8 C0.608125 7.030625 0.21625 6.06125 -0.1875 5.0625 C-1.67594887 1.77823609 -1.67594887 1.77823609 -4.6875 1.125 C-5.8321875 1.063125 -5.8321875 1.063125 -7 1 C-3.375 -1.125 -3.375 -1.125 0 0 Z " fill="#372E32" transform="translate(57,43)"/>
<path d="M0 0 C0.66 0 1.32 0 2 0 C2 1.98 2 3.96 2 6 C1.01 6.33 0.02 6.66 -1 7 C-1.625 5.1875 -1.625 5.1875 -2 3 C-1.34 2.01 -0.68 1.02 0 0 Z " fill="#646467" transform="translate(71,27)"/>
<path d="M0 0 C1.53166168 4.08443115 0.63081652 7.79455657 0 12 C-0.99 12.33 -1.98 12.66 -3 13 C-2.68991116 11.39536551 -2.37683713 9.79130769 -2.0625 8.1875 C-1.88847656 7.29417969 -1.71445312 6.40085937 -1.53515625 5.48046875 C-1 3 -1 3 0 0 Z " fill="#45383C" transform="translate(41,37)"/>
<path d="M0 0 C1.32 0.33 2.64 0.66 4 1 C4 1.66 4 2.32 4 3 C2.35 3.66 0.7 4.32 -1 5 C-1 4.34 -1 3.68 -1 3 C-2.32 2.67 -3.64 2.34 -5 2 C-3.35 2 -1.7 2 0 2 C0 1.34 0 0.68 0 0 Z " fill="#40434B" transform="translate(78,26)"/>
<path d="M0 0 C-0.33 1.32 -0.66 2.64 -1 4 C-1 3.34 -1 2.68 -1 2 C-1.78375 2.495 -2.5675 2.99 -3.375 3.5 C-6 5 -6 5 -8 5 C-7 2 -7 2 -5.125 0.8125 C-3 0 -3 0 0 0 Z " fill="#120707" transform="translate(28,117)"/>
<path d="M0 0 C1.65 0 3.3 0 5 0 C4.34 1.32 3.68 2.64 3 4 C2.01 4 1.02 4 0 4 C0 2.68 0 1.36 0 0 Z " fill="#431412" transform="translate(26,96)"/>
<path d="M0 0 C2.475 0.99 2.475 0.99 5 2 C5.33 1.34 5.66 0.68 6 0 C5.67 1.65 5.34 3.3 5 5 C4.67 4.34 4.34 3.68 4 3 C2.68 3.33 1.36 3.66 0 4 C0 2.68 0 1.36 0 0 Z " fill="#411312" transform="translate(32,71)"/>
</svg>
